<svg width="35" height="35" viewBox="0 0 35 35" fill="none" xmlns="http://www.w3.org/2000/svg">
<path d="M15.1751 0.0433575C6.80712 0.0433575 0 6.85048 0 15.2185C0 23.5865 6.80712 30.3936 15.1751 30.3936C17.7332 30.3936 20.2479 29.7866 22.3725 28.6159C22.5426 28.8207 22.7313 29.0094 22.9361 29.1796L27.2719 33.5153C27.6722 33.9658 28.1604 34.3297 28.7065 34.5847C29.2526 34.8397 29.845 34.9804 30.4474 34.9981C31.0498 35.0158 31.6495 34.9102 32.2096 34.6878C32.7698 34.4654 33.2785 34.1309 33.7047 33.7047C34.1308 33.2785 34.4654 32.7698 34.6878 32.2096C34.9102 31.6495 35.0158 31.0498 34.9981 30.4474C34.9804 29.845 34.8397 29.2526 34.5847 28.7065C34.3297 28.1604 33.9658 27.6722 33.5153 27.2719L29.1796 22.9361C28.9684 22.7248 28.7359 22.5359 28.4859 22.3725C29.6565 20.2479 30.3936 17.7766 30.3936 15.1751C30.3936 6.80712 23.5865 0 15.2185 0L15.1751 0.0433575ZM15.1751 4.37911C21.2018 4.37911 26.0145 9.19178 26.0145 15.2185C26.0145 18.0801 24.9739 20.7249 23.1529 22.676C23.1095 22.7193 23.0662 22.7627 23.0228 22.806C22.818 22.9762 22.6293 23.1649 22.4592 23.3697C20.5514 25.104 17.95 26.1012 15.1318 26.1012C9.10507 26.1012 4.29239 21.2885 4.29239 15.2618C4.29239 9.23514 9.10507 4.42246 15.1318 4.42246L15.1751 4.37911Z" fill="black"/>
</svg>
